<svg xmlns="http://www.w3.org/2000/svg" width="165" height="34" viewBox="0 0 165 34" fill="none">
<g clip-path="url(#clip0_464_332)">
<path d="M50.8481 20.9809C51.1594 21.4074 51.539 21.7934 51.989 22.141C52.4389 22.4864 52.9635 22.7701 53.5627 22.9876C54.1619 23.2072 54.8315 23.316 55.5693 23.316C56.3071 23.316 57.0173 23.1838 57.6293 22.9193C58.2391 22.6549 58.7595 22.2967 59.1859 21.8467C59.6124 21.3968 59.9408 20.8679 60.1711 20.2559C60.4014 19.6439 60.5166 18.9935 60.5166 18.3005C60.5166 17.2406 60.2458 16.3983 59.7041 15.7756C59.1625 15.153 58.4886 14.6348 57.6804 14.219C56.8722 13.8031 56.0022 13.4236 55.0682 13.0781C54.1342 12.7326 53.2642 12.2998 52.456 11.7816C51.6478 11.2634 50.9739 10.6002 50.4323 9.792C49.8906 8.98594 49.6198 7.90053 49.6198 6.54003C49.6198 5.5719 49.7925 4.68907 50.138 3.89366C50.4834 3.09826 50.9867 2.41161 51.6435 1.83586C52.3003 1.2601 53.0914 0.810149 54.0126 0.486018C54.936 0.164019 55.9724 0.00195312 57.126 0.00195312C58.2797 0.00195312 59.1902 0.134165 59.9984 0.398588C60.8045 0.665143 61.5551 1.07457 62.246 1.62688C62.0392 2.01925 61.8643 2.43507 61.7278 2.87222C61.5892 3.31151 61.4506 3.86381 61.312 4.5334H60.8962C60.781 4.2114 60.6254 3.85954 60.4292 3.47784C60.233 3.09826 59.9664 2.74641 59.6338 2.42228C59.299 2.10028 58.9023 1.82946 58.4396 1.60982C57.9769 1.39017 57.4246 1.28142 56.7784 1.28142C56.1323 1.28142 55.5373 1.38591 54.9978 1.59276C54.4562 1.7996 53.9828 2.09388 53.5798 2.47559C53.1746 2.8573 52.8654 3.31151 52.6457 3.84249C52.4261 4.37346 52.3173 4.94922 52.3173 5.5719C52.3173 6.65731 52.5882 7.51029 53.1298 8.13083C53.6714 8.7535 54.3453 9.27809 55.1535 9.70457C55.9596 10.1311 56.8317 10.5128 57.7657 10.8454C58.6998 11.1802 59.5698 11.5897 60.378 12.0737C61.1841 12.5578 61.86 13.1805 62.4017 13.9417C62.9433 14.703 63.2141 15.7181 63.2141 16.9869C63.2141 18.0488 63.0244 19.0511 62.6426 19.9957C62.2631 20.9426 61.7086 21.7657 60.9836 22.4694C60.2564 23.1731 59.3693 23.7147 58.3202 24.0964C57.271 24.4781 56.0768 24.6679 54.7398 24.6679C53.3089 24.6679 52.151 24.4781 51.2639 24.0964C50.3768 23.7147 49.6326 23.284 49.0312 22.7999C49.2381 22.2689 49.3831 21.7913 49.4641 21.3648C49.5452 20.9383 49.6198 20.3903 49.688 19.7207H50.1039C50.2894 20.1365 50.5368 20.5566 50.8481 20.9831V20.9809Z" fill="#004344"/>
<path d="M69.1488 17.8509C69.1488 17.0662 69.1424 16.2132 69.1317 15.292C69.1211 14.3686 69.1019 13.4517 69.0806 12.5411C69.0571 11.6306 69.0294 10.7605 68.9931 9.92886C68.959 9.09934 68.9185 8.38284 68.8716 7.78362C69.5177 7.89878 70.0359 7.95635 70.4283 7.95635C70.8206 7.95635 71.3388 7.89878 71.985 7.78362C71.8933 8.38284 71.8229 8.9586 71.7781 9.51304C71.7312 10.0675 71.7077 10.6198 71.7077 11.1742H71.7781C71.9402 10.8053 72.1705 10.4065 72.469 9.98004C72.7676 9.55355 73.1535 9.15052 73.6269 8.76881C74.1003 8.38924 74.6697 8.0715 75.3393 7.81774C76.0089 7.56398 76.7702 7.43604 77.6231 7.43604C78.4761 7.43604 79.3653 7.6045 80.2183 7.93716C81.0713 8.27195 81.8262 8.78587 82.4851 9.47678C83.1419 10.1677 83.6729 11.0505 84.0759 12.1231C84.4789 13.1958 84.6815 14.471 84.6815 15.9466C84.6815 17.4223 84.4619 18.7039 84.0247 19.7872C83.5854 20.8726 83.0161 21.7703 82.3124 22.4847C81.6087 23.1991 80.8069 23.7258 79.907 24.0584C79.0071 24.3932 78.1072 24.5596 77.2094 24.5596C74.6718 24.5596 72.8614 23.4635 71.7781 21.2735H71.7077V23.4528C71.7077 24.1906 71.7141 25.0159 71.7248 25.9265C71.7355 26.837 71.7525 27.7433 71.776 28.6432C71.7994 29.5431 71.8271 30.4025 71.8634 31.2213C71.8975 32.0402 71.938 32.7375 71.985 33.3154C71.3388 33.2002 70.8206 33.1427 70.4283 33.1427C70.0359 33.1427 69.5177 33.2002 68.8716 33.3154C68.9185 32.7375 68.959 32.0402 68.9931 31.2213C69.0273 30.4025 69.0571 29.5431 69.0806 28.6432C69.104 27.7433 69.1211 26.8391 69.1317 25.9265C69.1424 25.0159 69.1488 24.1906 69.1488 23.4528V17.8488V17.8509ZM81.6364 15.9125C81.6364 14.5285 81.4914 13.3877 81.2035 12.4878C80.9156 11.5879 80.5467 10.8671 80.0968 10.3255C79.6468 9.78386 79.1329 9.40855 78.5571 9.2017C77.9814 8.99485 77.4163 8.89036 76.8619 8.89036C75.9385 8.89036 75.1495 9.08655 74.4927 9.47892C73.8359 9.87129 73.2985 10.3959 72.8848 11.0527C72.469 11.7095 72.1705 12.4835 71.985 13.3706C71.7994 14.2577 71.7077 15.1981 71.7077 16.1897C71.7077 20.9877 73.3902 23.3867 76.7595 23.3867C77.589 23.3867 78.3098 23.1969 78.9218 22.8152C79.5338 22.4335 80.0413 21.9047 80.4444 21.2244C80.8474 20.5442 81.1481 19.7488 81.3442 18.8361C81.5404 17.9255 81.6385 16.951 81.6385 15.9125H81.6364Z" fill="#004344"/>
<path d="M97.587 10.2398C97.2522 10.1247 96.911 10.0671 96.5655 10.0671C96.0111 10.0671 95.5164 10.1951 95.0771 10.4488C94.6378 10.7026 94.2689 11.0416 93.9704 11.4703C93.6697 11.8968 93.4394 12.4043 93.2794 12.9928C93.1174 13.5814 93.0363 14.2083 93.0363 14.8779V18.6822C93.0363 20.2282 93.0427 21.4096 93.0534 22.2284C93.0641 23.0473 93.1046 23.7105 93.175 24.218C92.7143 24.1711 92.2516 24.1498 91.791 24.1498C91.2835 24.1498 90.7994 24.1732 90.3367 24.218C90.407 23.4354 90.4454 22.3671 90.4582 21.0172C90.4689 19.6674 90.4753 18.0126 90.4753 16.0529V14.9461C90.4753 14.0463 90.4689 13.0078 90.4582 11.8328C90.4476 10.6557 90.407 9.30796 90.3367 7.7854C90.5904 7.83231 90.8314 7.87283 91.0638 7.90695C91.2941 7.94107 91.5351 7.95813 91.791 7.95813C91.9978 7.95813 92.2175 7.94107 92.4478 7.90695C92.6781 7.87283 92.9191 7.83231 93.175 7.7854C93.0833 8.61492 93.0299 9.27171 93.0193 9.75791C93.0086 10.242 93.0022 10.7047 93.0022 11.1419L93.0726 11.176C94.4331 8.68529 95.9557 7.43994 97.6382 7.43994C97.845 7.43994 98.0241 7.45274 98.1755 7.47406C98.3248 7.49752 98.5146 7.55509 98.747 7.64679C98.6319 7.92401 98.5615 8.3441 98.5402 8.9092C98.5167 9.47429 98.5061 9.98821 98.5061 10.4488L98.263 10.6215C98.1478 10.4829 97.9218 10.3571 97.5891 10.2398H97.587Z" fill="#004344"/>
<path d="M104.404 1.76353C104.404 1.27947 104.577 0.86364 104.923 0.518184C105.268 0.172728 105.684 0 106.168 0C106.652 0 107.068 0.172728 107.413 0.518184C107.759 0.86364 107.931 1.27947 107.931 1.76353C107.931 2.2476 107.759 2.66342 107.413 3.00888C107.068 3.35433 106.652 3.52706 106.168 3.52706C105.684 3.52706 105.268 3.35433 104.923 3.00888C104.577 2.66342 104.404 2.2476 104.404 1.76353ZM104.888 14.2511C104.888 13.2126 104.871 12.1229 104.837 10.9821C104.803 9.84123 104.729 8.77288 104.613 7.78129C105.26 7.89644 105.778 7.95402 106.17 7.95402C106.562 7.95402 107.081 7.89644 107.727 7.78129C107.612 8.77288 107.537 9.8391 107.503 10.9821C107.469 12.1229 107.452 13.2148 107.452 14.2511V17.8486C107.452 18.8871 107.469 19.9767 107.503 21.1176C107.537 22.2585 107.612 23.2906 107.727 24.2139C107.196 24.167 106.678 24.1457 106.17 24.1457C105.663 24.1457 105.144 24.1691 104.613 24.2139C104.729 23.2927 104.803 22.2606 104.837 21.1176C104.871 19.9767 104.888 18.8849 104.888 17.8486V14.2511Z" fill="#004344"/>
<path d="M123.865 10.5684C123.196 9.68132 122.274 9.23564 121.097 9.23564C119.483 9.23564 118.299 9.7325 117.551 10.7241C116.8 11.7157 116.427 13.1103 116.427 14.9101V17.8507C116.427 18.8892 116.444 19.9789 116.478 21.1198C116.512 22.2606 116.587 23.2927 116.702 24.2161C116.171 24.1691 115.653 24.1478 115.146 24.1478C114.638 24.1478 114.12 24.1713 113.589 24.2161C113.704 23.2948 113.779 22.2627 113.813 21.1198C113.847 19.9789 113.864 18.8871 113.864 17.8507V14.2533C113.864 13.2148 113.847 12.1251 113.813 10.9842C113.779 9.84338 113.704 8.77503 113.589 7.78344C114.235 7.8986 114.753 7.95617 115.146 7.95617C115.331 7.95617 115.532 7.93911 115.751 7.90499C115.971 7.87087 116.229 7.83036 116.53 7.78344C116.461 8.70679 116.425 9.62801 116.425 10.5514H116.495C117.142 9.55977 117.913 8.79209 118.813 8.25045C119.713 7.70881 120.786 7.43799 122.031 7.43799C122.677 7.43799 123.328 7.52968 123.985 7.71521C124.641 7.90073 125.234 8.21633 125.765 8.66628C126.296 9.11622 126.729 9.72823 127.062 10.5002C127.396 11.2721 127.563 12.2594 127.563 13.4579C127.563 14.4495 127.539 15.4709 127.495 16.5201C127.448 17.5692 127.424 18.6824 127.424 19.8573V22.1049C127.424 22.4739 127.431 22.8385 127.441 23.1946C127.452 23.5529 127.469 23.8919 127.492 24.2139C127.03 24.167 126.546 24.1457 126.038 24.1457C125.531 24.1457 125.081 24.1691 124.62 24.2139C124.667 23.0155 124.718 21.7808 124.776 20.512C124.833 19.2432 124.863 17.9403 124.863 16.6032V14.4921C124.863 12.7627 124.528 11.4534 123.861 10.5663L123.865 10.5684Z" fill="#004344"/>
<path d="M133.813 13.0762C133.813 12.108 133.986 11.2721 134.331 10.5684C134.677 9.86471 135.156 9.28255 135.766 8.82194C136.376 8.36134 137.082 8.01588 137.877 7.78344C138.673 7.55314 139.522 7.43799 140.419 7.43799C140.857 7.43799 141.279 7.45078 141.682 7.47211C142.085 7.49556 142.599 7.52968 143.221 7.5766C143.752 7.62351 144.224 7.65763 144.639 7.68109C145.055 7.70454 145.388 7.71521 145.642 7.71521C146.934 7.71521 147.868 7.65763 148.444 7.54248C148.42 7.65763 148.403 7.77918 148.393 7.90499C148.38 8.03294 148.375 8.15236 148.375 8.26751C148.375 8.38266 148.38 8.50421 148.393 8.63002C148.403 8.75797 148.42 8.87739 148.444 8.99254C147.774 8.94776 147.124 8.89445 146.488 8.83687C145.853 8.7793 145.226 8.73878 144.603 8.71532L144.535 8.78569C145.249 9.17806 145.825 9.78368 146.264 10.6025C146.702 11.4214 146.921 12.268 146.921 13.1444C146.921 14.8738 146.339 16.2301 145.175 17.2088C144.01 18.1898 142.447 18.6781 140.488 18.6781C140.163 18.6781 139.848 18.6674 139.537 18.644C139.225 18.6205 138.907 18.6099 138.585 18.6099C138.17 18.6099 137.784 18.7613 137.425 19.0598C137.067 19.3584 136.89 19.7401 136.89 20.2007C136.89 20.7999 137.033 21.2392 137.323 21.5143C137.611 21.7915 138.148 21.9407 138.931 21.9642C139.577 21.9877 140.213 22.0047 140.833 22.0154C141.456 22.0282 142.089 22.0452 142.735 22.0666C143.795 22.09 144.701 22.2158 145.452 22.4483C146.2 22.6786 146.812 22.9899 147.286 23.3823C147.757 23.7746 148.105 24.2246 148.324 24.7321C148.544 25.2396 148.653 25.7941 148.653 26.3933C148.653 27.1993 148.497 28.0203 148.186 28.8499C147.874 29.6794 147.39 30.43 146.734 31.0975C146.077 31.767 145.228 32.3193 144.192 32.7586C143.153 33.1958 141.908 33.4154 140.456 33.4154C138.219 33.4154 136.455 32.9719 135.163 32.0826C133.871 31.1934 133.224 29.9779 133.224 28.434C133.224 27.8327 133.333 27.2804 133.553 26.7729C133.773 26.2653 134.054 25.8154 134.402 25.423C134.747 25.0307 135.139 24.7193 135.577 24.489C136.014 24.2587 136.464 24.086 136.926 23.9708V23.9005C136.212 23.6936 135.668 23.346 135.299 22.862C134.93 22.3779 134.745 21.8 134.745 21.1325C134.745 20.7402 134.82 20.3841 134.969 20.0599C135.118 19.7379 135.31 19.45 135.54 19.1942C135.771 18.9404 136.035 18.7335 136.336 18.5715C136.634 18.4094 136.924 18.3071 137.202 18.2601V18.1898C136.14 17.7292 135.31 17.0766 134.711 16.2365C134.112 15.3963 133.811 14.3386 133.811 13.0719L133.813 13.0762ZM146.094 27.8839C146.094 26.4999 145.689 25.5318 144.883 24.9773C144.074 24.4229 142.737 24.1478 140.869 24.1478C139.14 24.1478 137.803 24.4293 136.856 24.9965C135.909 25.5616 135.438 26.5809 135.438 28.0587C135.438 28.8413 135.57 29.5109 135.837 30.0654C136.101 30.6198 136.459 31.0697 136.909 31.4152C137.359 31.7606 137.895 32.0144 138.517 32.1765C139.14 32.3364 139.809 32.4174 140.524 32.4174C141.238 32.4174 141.895 32.3257 142.565 32.1402C143.234 31.9547 143.827 31.6796 144.347 31.3107C144.865 30.9418 145.288 30.4748 145.61 29.9097C145.932 29.3446 146.094 28.6686 146.094 27.886V27.8839ZM144.226 12.9034C144.226 11.4512 143.88 10.3445 143.187 9.58323C142.496 8.82194 141.584 8.44024 140.453 8.44024C139.208 8.44024 138.24 8.86246 137.547 9.70264C136.856 10.545 136.508 11.6688 136.508 13.0762C136.508 14.4836 136.826 15.6756 137.46 16.5179C138.093 17.3603 139.08 17.7803 140.417 17.7803C141.087 17.7803 141.656 17.6481 142.13 17.3837C142.601 17.1193 142.995 16.761 143.305 16.3111C143.616 15.8611 143.846 15.343 143.995 14.7544C144.145 14.1659 144.219 13.5496 144.219 12.9034H144.226Z" fill="#004344"/>
<path d="M155.92 21.7594C156.161 22.0366 156.451 22.2946 156.786 22.5377C157.121 22.7808 157.5 22.9812 157.927 23.1433C158.353 23.3054 158.81 23.3864 159.294 23.3864C159.731 23.3864 160.153 23.316 160.556 23.1796C160.959 23.041 161.317 22.8448 161.629 22.591C161.94 22.3372 162.187 22.0152 162.373 21.6229C162.558 21.2305 162.65 20.7806 162.65 20.273C162.65 19.5587 162.447 19.0106 162.044 18.6289C161.639 18.2472 161.138 17.938 160.539 17.6949C159.94 17.4539 159.281 17.2407 158.566 17.0552C157.852 16.8697 157.195 16.6116 156.594 16.2768C155.995 15.942 155.491 15.4985 155.088 14.9441C154.683 14.3896 154.483 13.6305 154.483 12.6602C154.483 11.8989 154.609 11.2016 154.864 10.5662C155.118 9.93282 155.487 9.38478 155.971 8.92204C156.455 8.46143 157.055 8.09678 157.769 7.83236C158.483 7.56794 159.302 7.43359 160.225 7.43359C161.078 7.43359 161.799 7.54875 162.388 7.77905C162.976 8.00935 163.535 8.2162 164.066 8.40172C163.88 8.74718 163.708 9.1758 163.548 9.68119C163.386 10.1887 163.281 10.5811 163.236 10.8583H162.821C162.635 10.3039 162.279 9.80914 161.748 9.36985C161.217 8.9327 160.56 8.71306 159.776 8.71306C159.43 8.71306 159.085 8.77064 158.737 8.88579C158.392 9.00094 158.08 9.17367 157.803 9.40397C157.526 9.63428 157.295 9.93495 157.112 10.3039C156.927 10.6728 156.835 11.1121 156.835 11.6174C156.835 12.3553 157.035 12.9268 157.44 13.3298C157.844 13.735 158.345 14.0506 158.946 14.2809C159.545 14.5112 160.202 14.7138 160.919 14.8865C161.633 15.0592 162.29 15.3023 162.891 15.6137C163.49 15.925 163.991 16.3579 164.397 16.9102C164.8 17.4646 165.002 18.2259 165.002 19.194C165.002 19.8636 164.857 20.5204 164.569 21.1665C164.279 21.8127 163.866 22.3948 163.324 22.913C162.782 23.4312 162.13 23.8364 161.368 24.1242C160.607 24.4121 159.744 24.5571 158.773 24.5571C157.711 24.5571 156.824 24.4526 156.11 24.2458C155.395 24.0389 154.794 23.7958 154.31 23.5186C154.449 23.2201 154.592 22.8085 154.743 22.2903C154.892 21.7721 154.967 21.3393 154.967 20.9938H155.383C155.498 21.2241 155.677 21.4779 155.92 21.7551V21.7594Z" fill="#004344"/>
<path d="M19.079 4.29889L20.7061 3.00449C20.7061 3.00449 22.7084 3.68048 22.4739 6.80025C22.2393 9.92001 20.4374 10.3828 20.4374 10.3828C20.1282 10.4211 20.0685 10.3039 20.0727 10.178C20.0727 10.178 19.9128 8.32068 22.7767 7.06254C25.6406 5.80653 26.9158 7.64256 26.9158 7.64256L26.2995 10.1141L28.0737 11.1739C28.0737 11.1739 28.0907 13.2871 25.0669 14.0868C22.0431 14.8865 21.0132 13.3341 21.0132 13.3341C20.8767 13.0547 20.9662 12.9609 21.0878 12.9225C21.0878 12.9225 22.7916 12.1633 24.9155 14.4579C27.0394 16.7545 25.8922 18.5287 25.8922 18.5287L23.5444 18.8251L22.8556 20.8104C22.8556 20.8104 20.8383 21.6591 19.192 18.9978C17.5479 16.3365 18.7314 14.6839 18.7314 14.6839C18.9596 14.4728 19.0748 14.5304 19.1473 14.6348C19.1473 14.6348 20.3713 16.2598 18.7933 18.9616C17.2153 21.6634 15.1831 20.8658 15.1831 20.8658L14.1979 19.1855L11.5451 18.4455C11.5451 18.4455 10.3851 16.6777 12.4919 14.3662C14.5988 12.0546 16.309 12.8031 16.309 12.8031C16.4305 12.8393 16.5201 12.9332 16.3858 13.2146C16.3858 13.2146 15.3686 14.7735 12.3384 13.9972C9.30817 13.221 9.3103 11.1057 9.3103 11.1057L10.9928 9.83898L10.7582 7.43785C10.7582 7.43785 12.0676 5.77667 14.9272 7.04334C17.7868 8.31002 17.6204 10.1674 17.6204 10.1674C17.6247 10.2932 17.5629 10.4105 17.2558 10.3721C17.2558 10.3721 15.4539 9.90082 15.2321 6.78105C15.0082 3.66129 17.0148 2.9917 17.0148 2.9917L19.079 4.29249" fill="#EEABBE"/>
<path d="M15.8867 21.171C15.424 21.171 15.119 21.058 15.1126 21.0537C15.0721 21.0367 15.038 21.0089 15.0146 20.9705L14.0699 19.3606L11.4939 18.6419C11.4491 18.6291 11.4086 18.6014 11.383 18.5609C11.3318 18.4841 10.1632 16.6374 12.349 14.2406C12.3575 14.232 12.3661 14.2235 12.3746 14.2128C12.3469 14.2064 12.3213 14.2 12.2936 14.1915C9.15246 13.3854 9.11621 11.2018 9.11621 11.1101C9.11621 11.0483 9.14606 10.9907 9.19511 10.9523L10.7902 9.75176L10.5663 7.45938C10.562 7.4082 10.5769 7.35916 10.6068 7.31864C10.6644 7.24614 12.0441 5.55298 15.0103 6.86656L15.0444 6.88149C15.0423 6.85377 15.0401 6.82605 15.038 6.79832C14.8077 3.56341 16.8676 2.83838 16.9551 2.80852C17.0105 2.79146 17.0724 2.79786 17.1214 2.82985L19.0683 4.056L20.5866 2.84904C20.6399 2.80852 20.7103 2.79573 20.7722 2.81705C20.8596 2.84691 22.9174 3.58047 22.6743 6.81325C22.6743 6.84097 22.67 6.8687 22.6679 6.89642C22.6786 6.89215 22.6892 6.88576 22.702 6.88149C25.681 5.57643 27.0693 7.51056 27.0821 7.52975C27.114 7.57667 27.1247 7.63424 27.1119 7.68969L26.5298 10.0204L28.1803 11.0056C28.24 11.0419 28.2762 11.1037 28.2762 11.1741C28.2762 11.2658 28.2592 13.4494 25.1223 14.2789C25.0946 14.2853 25.069 14.2939 25.0413 14.3003C25.0498 14.3088 25.0584 14.3173 25.0669 14.328C27.2697 16.7099 26.1139 18.563 26.0649 18.6398C26.0329 18.6888 25.9817 18.7208 25.9241 18.7272L23.6957 19.0087L23.0475 20.8789C23.0283 20.9322 22.9899 20.9748 22.9387 20.9961C22.9174 21.0047 20.7466 21.8768 19.0321 19.1068C19.0171 19.0833 19.0022 19.0599 18.9894 19.0343C18.983 19.045 18.9766 19.0556 18.9702 19.0663C17.9339 20.8405 16.6821 21.171 15.8931 21.171H15.8867ZM15.3152 20.7083C15.6543 20.8106 17.2877 21.1561 18.6226 18.868C18.6696 18.7891 18.7122 18.7102 18.7549 18.6334C17.4669 16.1704 18.5246 14.6436 18.5736 14.5753C18.757 14.4005 18.8999 14.3344 19.0363 14.3514C19.1131 14.36 19.2219 14.3984 19.3114 14.5306C19.3562 14.5903 20.4608 16.1086 19.2005 18.6291C19.2496 18.7187 19.3029 18.8083 19.3605 18.8999C20.7188 21.0985 22.331 20.7722 22.702 20.6613L23.3588 18.7677C23.3823 18.6974 23.4462 18.6462 23.5209 18.6377L25.7706 18.3519C25.9497 18.0022 26.5404 16.5095 24.7726 14.5967C24.7108 14.5284 24.6489 14.4645 24.5871 14.4026C21.8661 14.9251 20.8916 13.5113 20.8511 13.4473C20.7444 13.234 20.7252 13.0784 20.7807 12.9504C20.8105 12.8801 20.8788 12.7862 21.0323 12.7393C21.0835 12.7159 22.6828 12.0356 24.715 13.974C24.8131 13.9527 24.9155 13.9271 25.02 13.8994C27.5 13.2447 27.8305 11.7072 27.8753 11.2829L26.2035 10.2849C26.1288 10.2401 26.0926 10.1527 26.1139 10.0674L26.7067 7.68969C26.4466 7.38048 25.2524 6.19698 22.8598 7.24401C22.7766 7.28026 22.6956 7.31864 22.6167 7.35489C22.2201 10.0951 20.5653 10.5536 20.4907 10.5728C20.254 10.6026 20.1004 10.5706 19.9981 10.4768C19.9405 10.4256 19.8765 10.3297 19.8808 10.1697C19.8744 10.1143 19.7571 8.3806 22.2542 7.09473C22.2649 6.99451 22.2755 6.89002 22.2841 6.7834C22.476 4.21807 21.124 3.40561 20.7423 3.22861L19.2048 4.4505C19.1387 4.50168 19.0491 4.50808 18.9766 4.4633L16.9956 3.21582C16.6331 3.37788 15.2427 4.17542 15.4282 6.7706C15.4368 6.87722 15.4453 6.98171 15.456 7.08194C17.9488 8.37633 17.823 10.1121 17.8166 10.1889C17.823 10.3254 17.7547 10.4192 17.6993 10.4704C17.5969 10.5642 17.4434 10.5962 17.2302 10.5706C17.1321 10.5472 15.4773 10.0823 15.0913 7.33997C15.0124 7.30158 14.9314 7.26533 14.8482 7.22695C12.4407 6.16072 11.2209 7.23548 10.9629 7.5063L11.1889 9.82426C11.1953 9.8925 11.1655 9.95861 11.1122 10.0013L9.51285 11.204C9.55336 11.607 9.87749 13.1679 12.3874 13.8098C12.4919 13.8354 12.5921 13.861 12.6923 13.8823C14.7117 11.9269 16.3175 12.5964 16.3878 12.6263C16.5179 12.6647 16.5883 12.7564 16.6181 12.8267C16.6736 12.9547 16.6565 13.1104 16.5627 13.3023C16.5094 13.3876 15.5434 14.8078 12.8203 14.3067C12.7584 14.3685 12.6987 14.4346 12.6369 14.5028C10.8542 16.4583 11.5024 17.9617 11.673 18.2815L14.249 19.0002C14.298 19.013 14.3407 19.045 14.3663 19.0897L15.3131 20.7061L15.3152 20.7083ZM18.8828 14.8206C18.7783 14.9805 18.0512 16.2045 18.9745 18.1877C19.9192 16.0595 19.0321 14.8163 18.9916 14.7587C18.998 14.7459 18.9617 14.7481 18.8828 14.8184V14.8206ZM21.1368 13.1189C21.1368 13.1189 21.1517 13.1722 21.1901 13.2511C21.2136 13.2831 21.9983 14.392 24.2267 14.0636C22.5037 12.5559 21.2242 13.0805 21.1667 13.1061C21.1667 13.1061 21.1475 13.1125 21.1368 13.1168V13.1189ZM13.1785 13.9719C15.4091 14.2832 16.1874 13.1658 16.2215 13.1125C16.262 13.0251 16.2556 12.9845 16.2556 12.9845C16.1746 12.9654 14.8909 12.4514 13.1785 13.9719ZM22.1753 7.58733C20.1879 8.72179 20.2646 10.1015 20.2689 10.1655C20.2689 10.1655 20.2689 10.1846 20.2689 10.1974C20.2753 10.1974 20.2881 10.1974 20.3115 10.1974C20.335 10.1974 20.367 10.1974 20.4118 10.191C20.4502 10.1782 21.7531 9.79867 22.1732 7.58733H22.1753ZM15.5285 7.57453C15.9464 9.8072 17.2899 10.1846 17.3048 10.1889C17.4008 10.1996 17.4391 10.1804 17.4391 10.1804C17.4306 10.0972 17.5116 8.71539 15.5285 7.57453Z" fill="white"/>
<path d="M20.1366 11.4876C20.1366 11.4876 19.9298 11.1955 19.4756 11.3576L20.0833 11.831L20.1388 11.4876H20.1366Z" fill="#EEABBE"/>
<path d="M19.3392 11.4176C19.3585 11.4069 19.3799 11.3962 19.4013 11.3877C19.427 11.3769 19.4527 11.3662 19.4762 11.3577L19.3456 11.2549C19.3456 11.2827 19.3499 11.3084 19.3456 11.3405C19.3456 11.3684 19.3413 11.3919 19.337 11.4176H19.3392Z" fill="#EEABBE"/>
<path d="M19.0299 10.6667L18.8124 10.8394L19.3455 11.2552C19.3434 10.7754 19.0299 10.6646 19.0299 10.6646V10.6667Z" fill="#EEABBE"/>
<path d="M18.9212 11.9437C18.9212 11.9672 18.9319 11.9864 18.9852 11.98C18.9852 11.98 19.2752 11.9032 19.3371 11.417C18.8935 11.6409 18.9191 11.9437 18.9191 11.9437H18.9212Z" fill="#EEABBE"/>
<path d="M19.7404 12.4748C19.7125 12.4812 19.689 12.4833 19.6611 12.4898C19.6783 12.5069 19.6954 12.5219 19.7125 12.5412C19.7404 12.5711 19.7661 12.6011 19.7875 12.6311L19.8603 12.4341C19.8239 12.4491 19.7832 12.4619 19.7404 12.4748Z" fill="#EEABBE"/>
<path d="M19.8871 13.2658C19.8871 13.2658 20.062 12.995 19.7869 12.6304L19.5353 13.3106L19.8871 13.2658Z" fill="#EEABBE"/>
<path d="M20.2753 11.9565L20.0834 11.835L19.8595 12.4363C20.2753 12.2742 20.2753 11.9565 20.2753 11.9565Z" fill="#EEABBE"/>
<path d="M19.0321 12.268C19.0108 12.2744 18.9937 12.2914 19.0193 12.3405C19.0193 12.3405 19.1878 12.5836 19.6633 12.4897C19.3093 12.1464 19.0321 12.268 19.0321 12.268Z" fill="#EEABBE"/>
<path d="M18.8039 12.4939C18.7911 12.4747 18.7698 12.464 18.7293 12.5024C18.7293 12.5024 18.5395 12.7349 18.7719 13.1635C19.0001 12.7221 18.8018 12.4939 18.8018 12.4939H18.8039Z" fill="#EEABBE"/>
<path d="M18.1002 13.6028C18.1002 13.6028 18.4094 13.6902 18.678 13.3213L17.9935 13.3298L18.098 13.6006L18.1002 13.6028Z" fill="#EEABBE"/>
<path d="M18.7745 13.1655C18.7638 13.1848 18.7531 13.2062 18.7423 13.2276C18.7209 13.264 18.6995 13.294 18.6781 13.324H18.873C18.8516 13.294 18.8323 13.2662 18.813 13.2341C18.798 13.2105 18.7873 13.1891 18.7745 13.1655Z" fill="#EEABBE"/>
<path d="M19.465 13.592L19.5353 13.3105L18.8743 13.3191C19.1536 13.6901 19.4671 13.592 19.4671 13.592H19.465Z" fill="#EEABBE"/>
<path d="M17.4156 11.4579L17.4668 11.8012L18.0788 11.3555C17.6246 11.1913 17.4156 11.4557 17.4156 11.4557V11.4579Z" fill="#EEABBE"/>
<path d="M18.2203 11.4177C18.216 11.3921 18.2138 11.3685 18.2117 11.3407C18.2117 11.3107 18.2117 11.2871 18.2117 11.2593L18.0768 11.3556C18.1025 11.3642 18.1282 11.3749 18.156 11.3878C18.1774 11.3985 18.1988 11.407 18.2181 11.4177H18.2203Z" fill="#EEABBE"/>
<path d="M18.5714 11.98C18.6268 11.9864 18.6375 11.9672 18.6354 11.9437C18.6354 11.9437 18.661 11.6409 18.2174 11.417C18.2792 11.9032 18.5693 11.98 18.5693 11.98H18.5714Z" fill="#EEABBE"/>
<path d="M18.5287 10.6665C18.5287 10.6665 18.2131 10.7774 18.2131 11.2593L18.7676 10.8563L18.5287 10.6665Z" fill="#EEABBE"/>
<path d="M18.5075 12.3082C18.531 12.2592 18.5161 12.2421 18.4947 12.2357C18.4947 12.2357 18.2175 12.1142 17.8635 12.4575C18.3391 12.5535 18.5075 12.3082 18.5075 12.3082Z" fill="#EEABBE"/>
<path d="M17.8644 12.4581C17.8387 12.4539 17.8151 12.4517 17.7851 12.4431C17.7444 12.4324 17.7059 12.4196 17.6716 12.4067L17.738 12.6016C17.7594 12.5716 17.7851 12.5417 17.813 12.5117C17.8301 12.4924 17.8472 12.4774 17.8644 12.4603V12.4581Z" fill="#EEABBE"/>
<path d="M17.2515 11.9245C17.2515 11.9245 17.2515 12.2443 17.6737 12.4064L17.4668 11.8008L17.2515 11.9245Z" fill="#EEABBE"/>
<path d="M17.6397 13.2341L17.9808 13.3109L17.7377 12.5986C17.4648 12.9633 17.6375 13.2341 17.6375 13.2341H17.6397Z" fill="#EEABBE"/>
<path d="M20.2412 11.8865C20.2199 11.8865 20.1985 11.8801 20.1815 11.8651L19.5737 11.3917C19.546 11.3704 19.5311 11.3342 19.5375 11.2979C19.5439 11.2616 19.5673 11.2339 19.6015 11.2211C20.1218 11.0356 20.367 11.3725 20.3777 11.3875C20.3926 11.4088 20.399 11.4344 20.3947 11.46L20.3393 11.8033C20.3329 11.8374 20.3094 11.8673 20.2774 11.8801C20.2668 11.8843 20.254 11.8865 20.2412 11.8865ZM19.8595 11.3661L20.1708 11.6092L20.1921 11.477C20.1474 11.4344 20.0386 11.3576 19.8595 11.3683V11.3661Z" fill="white"/>
<path d="M19.5033 11.4639C19.4841 11.4639 19.4628 11.4596 19.4479 11.4489C19.418 11.4276 19.3946 11.3956 19.3988 11.3615V11.353C19.4031 11.3317 19.4052 11.3125 19.4073 11.289C19.4073 11.2741 19.4073 11.2592 19.4073 11.2464V11.2122C19.4073 11.1739 19.4265 11.1397 19.4607 11.1227C19.4948 11.1056 19.5353 11.1099 19.5651 11.1333L19.6952 11.2357C19.7229 11.257 19.7379 11.2933 19.7315 11.3295C19.7251 11.3658 19.7016 11.3935 19.6675 11.4063C19.644 11.4148 19.6206 11.4234 19.5993 11.4319L19.5588 11.4511C19.5438 11.4596 19.5246 11.4639 19.5054 11.4639H19.5033Z" fill="white"/>
<path d="M19.5033 11.3103C19.4819 11.3103 19.4606 11.3039 19.4436 11.289L18.9105 10.8731C18.887 10.854 18.8721 10.8262 18.8721 10.7964C18.8721 10.7665 18.8849 10.7367 18.9083 10.7196L19.1258 10.5469C19.1514 10.5256 19.1877 10.5192 19.2197 10.532C19.2346 10.5384 19.5992 10.6727 19.6014 11.2143C19.6014 11.2527 19.58 11.2868 19.5459 11.3039C19.5331 11.3103 19.5182 11.3146 19.5033 11.3146V11.3103ZM19.128 10.7942L19.3711 10.984C19.3263 10.8433 19.2474 10.7708 19.1983 10.7388L19.128 10.7942Z" fill="white"/>
<path d="M19.1238 12.0334C19.079 12.0334 19.047 12.0206 19.0214 11.9993C18.9937 11.9737 18.9788 11.9396 18.9809 11.9012C18.9809 11.8479 18.9873 11.5216 19.4522 11.2849C19.4842 11.2679 19.5226 11.2721 19.5545 11.2935C19.5844 11.3148 19.5993 11.351 19.5951 11.3873C19.5247 11.9311 19.1856 12.0292 19.1707 12.0313C19.1536 12.0313 19.1387 12.0334 19.1259 12.0334H19.1238ZM19.3392 11.5963C19.256 11.6709 19.2155 11.7434 19.1963 11.7967C19.2389 11.7626 19.2965 11.7008 19.3392 11.5963Z" fill="white"/>
<path d="M19.9447 12.6861C19.9149 12.6861 19.885 12.6712 19.8658 12.6477C19.8445 12.6221 19.8232 12.5944 19.7976 12.5667C19.7848 12.5518 19.7699 12.539 19.7571 12.5262C19.7315 12.5006 19.7166 12.4579 19.7272 12.4238C19.7379 12.3897 19.7635 12.3598 19.7997 12.3513C19.7997 12.3513 19.8275 12.347 19.8296 12.347C19.8424 12.3449 19.8573 12.3428 19.8722 12.3385C19.9128 12.3279 19.949 12.3151 19.9831 12.3023C20.0194 12.2895 20.0599 12.298 20.0876 12.3236C20.1153 12.3513 20.1239 12.3918 20.1111 12.4281L20.0386 12.6243C20.0258 12.6584 19.9959 12.6818 19.9597 12.6882C19.9554 12.6882 19.9511 12.6882 19.9447 12.6882V12.6861Z" fill="white"/>
<path d="M19.6931 13.3664C19.6633 13.3664 19.6355 13.3536 19.6163 13.3302C19.595 13.3024 19.5886 13.2662 19.6014 13.2342L19.853 12.554C19.8658 12.5198 19.8957 12.4964 19.9319 12.49C19.9703 12.4857 20.0044 12.5006 20.0258 12.5284C20.3371 12.9421 20.1388 13.2619 20.1303 13.2747C20.1153 13.3003 20.0876 13.3152 20.0599 13.3195L19.708 13.3643C19.708 13.3643 19.6995 13.3643 19.6952 13.3643L19.6931 13.3664ZM19.9639 12.8184L19.8402 13.1489L19.9767 13.1318C19.9959 13.0764 20.0194 12.9655 19.9618 12.8184H19.9639Z" fill="white"/>
<path d="M20.0173 12.4895C19.9917 12.4895 19.9661 12.4788 19.9491 12.4618C19.9214 12.4341 19.9128 12.3936 19.9256 12.3573L20.1495 11.756C20.1602 11.7282 20.1815 11.7069 20.2114 11.6962C20.2391 11.6856 20.2711 11.6898 20.2945 11.7069L20.4864 11.8285C20.5142 11.8455 20.5312 11.8775 20.5312 11.9116C20.5312 11.9265 20.527 12.2976 20.0536 12.4831C20.0429 12.4874 20.0301 12.4895 20.0173 12.4895ZM20.2903 11.9393L20.2092 12.159C20.286 12.0843 20.3159 12.0097 20.3265 11.9607L20.2903 11.9372V11.9393Z" fill="white"/>
<path d="M19.6121 12.5666C19.2475 12.5666 19.1025 12.364 19.0961 12.3533C19.0641 12.2894 19.0598 12.2425 19.0769 12.2019C19.0918 12.1678 19.1195 12.1422 19.1579 12.1316C19.207 12.1124 19.5183 12.0143 19.8893 12.3747C19.9149 12.4003 19.9256 12.4386 19.9149 12.4728C19.9043 12.509 19.8765 12.5346 19.8403 12.541C19.7571 12.5581 19.6804 12.5645 19.6121 12.5645V12.5666ZM19.3285 12.3022C19.3754 12.3299 19.4479 12.3597 19.5545 12.3683C19.4628 12.3192 19.3861 12.3043 19.3285 12.3022Z" fill="white"/>
<path d="M18.9318 13.2191C18.8956 13.2191 18.8636 13.1999 18.8444 13.1679C18.5821 12.686 18.8017 12.4088 18.8103 12.3981C18.8614 12.349 18.9041 12.3299 18.9467 12.3384C18.983 12.3427 19.015 12.3618 19.0384 12.3938C19.0704 12.4343 19.2559 12.7052 19.0171 13.1679C19.0001 13.1999 18.9681 13.2212 18.9297 13.2212L18.9318 13.2191ZM18.9275 12.6028C18.9126 12.6561 18.9041 12.7393 18.9275 12.848C18.951 12.7393 18.9425 12.6583 18.9275 12.6028Z" fill="white"/>
<path d="M18.3433 13.6667C18.2772 13.6667 18.2367 13.656 18.2303 13.6539C18.2005 13.6454 18.177 13.624 18.1642 13.5942L18.0597 13.3234C18.0491 13.2935 18.0512 13.2594 18.0704 13.2338C18.0874 13.2061 18.1173 13.1911 18.1514 13.1911L18.8359 13.1826C18.8722 13.1826 18.9063 13.2039 18.9234 13.2359C18.9404 13.27 18.9383 13.3084 18.9148 13.3383C18.708 13.6198 18.4756 13.6688 18.3412 13.6688L18.3433 13.6667ZM18.3284 13.4705C18.3881 13.4705 18.4884 13.462 18.6014 13.3809L18.2964 13.3852L18.3305 13.4705H18.3284Z" fill="white"/>
<path d="M18.8359 13.377C18.7997 13.377 18.7656 13.3557 18.7485 13.3237C18.7314 13.2896 18.7336 13.2512 18.757 13.2213C18.7762 13.1936 18.7954 13.1659 18.8146 13.1339L18.8381 13.0934C18.8551 13.0614 18.8914 13.0337 18.9298 13.0337C18.966 13.0337 19.0023 13.0465 19.0193 13.0785C19.03 13.0998 19.0406 13.119 19.0534 13.1403C19.0705 13.1702 19.0897 13.1958 19.1089 13.2192C19.1323 13.2491 19.1345 13.2896 19.1195 13.3216C19.1025 13.3557 19.0705 13.377 19.0321 13.377H18.8381V13.3791L18.8359 13.377Z" fill="white"/>
<path d="M19.5247 13.6584C19.3861 13.6584 19.1601 13.6094 18.9532 13.3343C18.9319 13.3044 18.9276 13.2661 18.9426 13.2319C18.9596 13.1978 18.9916 13.1765 19.03 13.1765L19.691 13.168C19.7209 13.168 19.7486 13.1808 19.7678 13.2042C19.787 13.2277 19.7934 13.2597 19.787 13.2895L19.7166 13.571C19.7081 13.6051 19.6825 13.6307 19.6505 13.6414C19.6441 13.6414 19.5972 13.6584 19.5226 13.6584H19.5247ZM19.2646 13.3706C19.3797 13.4537 19.4842 13.4622 19.5439 13.4622L19.5674 13.3663L19.2646 13.3706Z" fill="white"/>
<path d="M17.6246 11.854C17.6118 11.854 17.599 11.8519 17.5862 11.8455C17.5542 11.8327 17.5329 11.8029 17.5265 11.7687L17.4753 11.4254C17.4711 11.3977 17.4796 11.3721 17.4945 11.3487C17.5052 11.3359 17.7547 11.0309 18.2686 11.2164C18.3027 11.2292 18.3283 11.2591 18.3326 11.2953C18.3368 11.3316 18.3219 11.3678 18.2921 11.3892L17.6801 11.8348C17.663 11.8476 17.6417 11.854 17.6225 11.854H17.6246ZM17.6779 11.4467L17.6971 11.5811L18.0042 11.3593C17.8315 11.3423 17.7248 11.4084 17.6779 11.4489V11.4467Z" fill="white"/>
<path d="M18.3774 11.4702C18.3624 11.4702 18.3475 11.466 18.3347 11.4596L18.3177 11.451L18.275 11.4297C18.2516 11.4191 18.2281 11.4105 18.2025 11.402C18.1684 11.3892 18.1428 11.3594 18.1385 11.3231C18.1343 11.2869 18.1492 11.2506 18.1791 11.2293L18.3134 11.1333C18.3432 11.112 18.3838 11.1077 18.4158 11.1248C18.4499 11.1418 18.4691 11.176 18.4691 11.2122V11.2463C18.4691 11.2591 18.4669 11.2719 18.4691 11.2869C18.4691 11.3124 18.4733 11.3359 18.4776 11.3594C18.4819 11.3956 18.4669 11.4297 18.4371 11.451C18.42 11.4638 18.4008 11.4681 18.3795 11.4681L18.3774 11.4702Z" fill="white"/>
<path d="M18.7484 12.0355C18.7484 12.0355 18.7271 12.0355 18.7164 12.0355C18.7122 12.0355 18.7079 12.0355 18.7036 12.0333C18.6887 12.0291 18.3497 11.9331 18.2793 11.3893C18.275 11.3531 18.2899 11.3168 18.3198 11.2955C18.3497 11.2742 18.388 11.272 18.4222 11.287C18.919 11.5386 18.8934 11.8947 18.8934 11.9096C18.8934 11.9544 18.8678 11.9864 18.8508 12.0013C18.8252 12.0248 18.7911 12.0376 18.7484 12.0376V12.0355ZM18.6951 11.8968C18.6951 11.8968 18.6951 11.899 18.6951 11.9011C18.6951 11.9011 18.6951 11.899 18.6951 11.8968ZM18.533 11.5962C18.5757 11.6985 18.6311 11.7582 18.6738 11.7945C18.6546 11.739 18.6141 11.6687 18.533 11.5962Z" fill="white"/>
<path d="M18.371 11.3126C18.3561 11.3126 18.3412 11.3083 18.3263 11.3019C18.2921 11.2849 18.2729 11.2508 18.2729 11.2145C18.2729 10.6707 18.6397 10.5343 18.6547 10.53C18.6866 10.5172 18.7229 10.5236 18.7485 10.5449L18.9873 10.7347C19.0108 10.7539 19.0257 10.7838 19.0236 10.8136C19.0214 10.8435 19.0086 10.8733 18.9831 10.8904L18.4286 11.2934C18.4116 11.3062 18.3902 11.3126 18.371 11.3126ZM18.676 10.739C18.6248 10.7731 18.5395 10.8499 18.4969 11.0013L18.7634 10.8072L18.676 10.7368V10.739Z" fill="white"/>
<path d="M18.2303 12.5344C18.162 12.5344 18.0874 12.528 18.0021 12.5109C17.9658 12.5045 17.9381 12.4768 17.9274 12.4427C17.9168 12.4085 17.9274 12.3702 17.953 12.3446C18.3497 11.9586 18.6781 12.0972 18.6909 12.1036C18.7186 12.1121 18.7484 12.1377 18.7634 12.1718C18.7804 12.2124 18.7762 12.2593 18.7527 12.3104C18.7527 12.3147 18.7484 12.319 18.7442 12.3232C18.7378 12.3339 18.5928 12.5365 18.2281 12.5365L18.2303 12.5344ZM18.5096 12.2699C18.452 12.2699 18.3774 12.287 18.2878 12.336C18.3902 12.3275 18.4627 12.2998 18.5096 12.2699ZM18.6184 12.2849H18.6226C18.6226 12.2849 18.6205 12.2849 18.6184 12.2849Z" fill="white"/>
<path d="M17.8955 12.6538C17.8955 12.6538 17.8849 12.6538 17.8806 12.6538C17.8444 12.6474 17.8145 12.6218 17.8017 12.5877L17.7356 12.3936C17.7228 12.3574 17.7335 12.3169 17.7612 12.2913C17.7889 12.2636 17.8294 12.255 17.8635 12.27C17.8955 12.2828 17.9296 12.2934 17.968 12.3041C17.9808 12.3062 17.9936 12.3083 18.0064 12.3105L18.0405 12.3169C18.0768 12.3233 18.1045 12.351 18.1152 12.3851C18.1258 12.4192 18.1152 12.4576 18.0896 12.4832L18.0832 12.4896C18.0704 12.5024 18.0576 12.5152 18.0427 12.5301C18.0171 12.5578 17.9936 12.5856 17.9744 12.6133C17.9552 12.6389 17.9254 12.6538 17.8955 12.6538Z" fill="white"/>
<path d="M17.8315 12.4622C17.8209 12.4622 17.8081 12.4601 17.7974 12.4558C17.3155 12.2724 17.3134 11.8971 17.3134 11.8822C17.3134 11.8481 17.3325 11.814 17.3624 11.7969L17.5778 11.6732C17.6034 11.6583 17.6354 11.6562 17.6609 11.6668C17.6887 11.6775 17.71 11.6988 17.7185 11.7265L17.9254 12.3321C17.9382 12.3684 17.9275 12.4089 17.8998 12.4345C17.8806 12.4516 17.8571 12.4622 17.8315 12.4622ZM17.5159 11.9334C17.5287 11.9867 17.565 12.0677 17.6524 12.1466L17.5692 11.9014L17.5159 11.9334Z" fill="white"/>
<path d="M18.1386 13.3661C18.1386 13.3661 18.1237 13.3661 18.1173 13.3639L17.7761 13.2872C17.7505 13.2808 17.7292 13.2658 17.7142 13.2445C17.7057 13.2317 17.5074 12.9119 17.8166 12.4982C17.8379 12.4683 17.8763 12.4555 17.9104 12.4598C17.9467 12.4662 17.9765 12.4918 17.9893 12.5259L18.2324 13.2381C18.2431 13.2722 18.2367 13.3085 18.2132 13.3362C18.194 13.3575 18.1685 13.3682 18.1407 13.3682L18.1386 13.3661ZM17.8656 13.1059L17.9893 13.1336L17.8742 12.7967C17.8187 12.9438 17.8443 13.0547 17.8656 13.1059Z" fill="white"/>
<path d="M18.9404 9.48525C18.8317 9.48525 18.7443 9.39782 18.7443 9.28907V7.59804C18.7443 7.48929 18.8317 7.40186 18.9404 7.40186C19.0492 7.40186 19.1366 7.48929 19.1366 7.59804V9.28907C19.1366 9.39782 19.0492 9.48525 18.9404 9.48525Z" fill="white"/>
<path d="M15.8014 11.4215C15.7779 11.4215 15.7523 11.4173 15.7289 11.4087L14.0634 10.7562C13.9611 10.7157 13.912 10.6027 13.9526 10.5003C13.9931 10.4001 14.1061 10.3489 14.2084 10.3894L15.8739 11.0419C15.9762 11.0825 16.0253 11.1955 15.9848 11.2978C15.9549 11.3746 15.8803 11.4236 15.8014 11.4236V11.4215Z" fill="white"/>
<path d="M21.8191 11.4215C21.7402 11.4215 21.6656 11.3746 21.6358 11.2957C21.5952 11.1933 21.6464 11.0803 21.7466 11.0398L23.4078 10.3894C23.508 10.3489 23.6232 10.4001 23.6637 10.5003C23.7042 10.6027 23.653 10.7157 23.5528 10.7562L21.8916 11.4066C21.8682 11.4151 21.8447 11.4194 21.8191 11.4194V11.4215Z" fill="white"/>
<path d="M15.7992 16.3364C15.7566 16.3364 15.7118 16.3215 15.6755 16.2917C15.5924 16.2234 15.5796 16.0997 15.6478 16.0144L16.6586 14.7776C16.7268 14.6945 16.8505 14.6795 16.9358 14.7499C17.019 14.8181 17.0318 14.9418 16.9635 15.0271L15.9527 16.2639C15.9144 16.3108 15.8568 16.3364 15.7992 16.3364Z" fill="white"/>
<path d="M21.849 16.6862C21.785 16.6862 21.721 16.6543 21.6827 16.5945L20.6719 15.008C20.6143 14.9163 20.6399 14.7948 20.7316 14.7372C20.8233 14.6796 20.9448 14.7052 21.0024 14.7969L22.0132 16.3834C22.0708 16.4751 22.0452 16.5967 21.9535 16.6543C21.9215 16.6756 21.8831 16.6841 21.849 16.6841V16.6862Z" fill="white"/>
<path d="M35.695 21.0155C35.759 21.2564 35.7931 21.5038 35.7931 21.7597C35.7931 25.8881 27.0628 28.1144 18.8508 28.1144C10.6388 28.1144 1.9128 25.8881 1.9128 21.7597C1.9128 21.3822 2.00876 21.0261 2.14737 20.6807C0.782607 21.604 0 22.6532 0 23.7706C0 27.4448 8.36984 30.4217 18.693 30.4217C29.0162 30.4217 37.386 27.4448 37.386 23.7706C37.386 22.7875 36.7697 21.8578 35.695 21.0176V21.0155Z" fill="white"/>
<path d="M1.51188 21.689C0.904136 22.2519 0.400879 22.9642 0.400879 23.7702C0.400879 27.1587 8.77712 30.0204 18.693 30.0204C28.6089 30.0204 36.9851 27.1587 36.9851 23.7702C36.9851 23.1795 36.7164 22.5867 36.1854 22.0067C36.0383 24.0005 34.0892 25.6766 30.5302 26.8665C27.3934 27.9157 23.137 28.5171 18.8529 28.5171C14.5688 28.5171 10.3125 27.9157 7.17565 26.8665C3.46947 25.6276 1.51188 23.8619 1.51188 21.7615C1.51188 21.738 1.51188 21.7146 1.51188 21.689Z" fill="#8ED0EA"/>
<path d="M18.6398 24.3248C11.4321 24.3248 5.58706 22.5506 5.58706 20.3627C5.58706 20.2241 5.61265 20.0855 5.65743 19.9512C4.63386 20.5589 4.09009 21.1922 4.09009 21.7595C4.09009 23.5785 9.70481 26.1161 18.8509 26.1161C27.9969 26.1161 33.6138 23.5806 33.6138 21.7595C33.6138 21.0942 32.8568 20.335 31.46 19.6377C31.6029 19.8723 31.6882 20.1154 31.6882 20.3627C31.6882 22.5506 25.8453 24.3248 18.6355 24.3248H18.6398Z" fill="white"/>
<path d="M5.23093 20.7254C4.75965 21.0986 4.49097 21.4654 4.49097 21.7596C4.49097 23.101 9.55979 25.7153 18.8508 25.7153C28.1419 25.7153 33.2129 23.1031 33.2129 21.7596C33.2129 21.459 32.9037 20.9856 32.0869 20.4546C31.9547 22.5423 27.2505 24.7259 18.6355 24.7259C10.0204 24.7259 5.73205 22.7256 5.22879 20.7254H5.23093Z" fill="#8ED0EA"/>
</g>
<defs>
<clipPath id="clip0_464_332">
<rect width="165" height="33.4175" fill="white"/>
</clipPath>
</defs>
</svg>